<svg width="153" height="48" viewBox="0 0 153 48" fill="none" xmlns="http://www.w3.org/2000/svg">
<path d="M15.2833 9L18.7146 19.5605H29.8186L20.8353 26.0872L24.2666 36.6478L15.2833 30.121L6.3 36.6478L9.73132 26.0872L0.748018 19.5605H11.852L15.2833 9Z" fill="black"/>
<path d="M45.85 9L49.2813 19.5605H60.3852L51.402 26.0872L54.8333 36.6478L45.85 30.121L36.8667 36.6478L40.298 26.0872L31.3147 19.5605H42.4187L45.85 9Z" fill="black"/>
<path d="M76.4166 9L79.8479 19.5605H90.9519L81.9686 26.0872L85.3999 36.6478L76.4166 30.121L67.4333 36.6478L70.8646 26.0872L61.8813 19.5605H72.9853L76.4166 9Z" fill="black"/>
<path d="M106.983 9L110.414 19.5605H121.518L112.535 26.0872L115.966 36.6478L106.983 30.121L97.9997 36.6478L101.431 26.0872L92.4477 19.5605H103.552L106.983 9Z" fill="black"/>
<path d="M137.55 9L140.981 19.5605H152.085L143.102 26.0872L146.533 36.6478L137.55 30.121L128.566 36.6478L131.998 26.0872L123.014 19.5605H134.118L137.55 9Z" fill="black"/>
</svg>
