<svg width="48" height="48" viewBox="0 0 48 48" fill="none" xmlns="http://www.w3.org/2000/svg">
<path d="M19.0362 23.2509H29.9644V14.4302H32.4623V34.5695H29.9644V25.7488H19.0362V34.5695H16.4602V14.4302H19.0362V23.2509Z" fill="#121212"/>
<path fill-rule="evenodd" clip-rule="evenodd" d="M6 24.5C6 14.2743 14.2743 6 24.5 6C34.7257 6 43 14.2743 43 24.5C43 34.7257 34.7257 43 24.5 43C14.2743 43 6 34.7257 6 24.5ZM8.4979 24.5C8.4979 33.3207 15.6793 40.5021 24.5 40.5021C33.3207 40.5021 40.5021 33.3207 40.5021 24.5C40.5021 15.6793 33.3207 8.49789 24.5 8.49789C15.6793 8.49789 8.4979 15.6793 8.4979 24.5Z" fill="#121212"/>
</svg>
