<svg width="48" height="48" viewBox="0 0 48 48" fill="none" xmlns="http://www.w3.org/2000/svg">
<path fill-rule="evenodd" clip-rule="evenodd" d="M26.1293 6.48071C28.7777 3.01708 32.4591 3 32.4591 3C32.4591 3 33.0066 6.25664 30.3761 9.39433C27.5667 12.7443 24.374 12.1962 24.374 12.1962C24.374 12.1962 23.7741 9.56124 26.1293 6.48071Z" fill="#AAAAAA"/>
<path fill-rule="evenodd" clip-rule="evenodd" d="M24.7104 14.4774C26.073 14.4774 28.601 12.6191 31.8923 12.6191C37.5574 12.6191 39.786 16.6196 39.786 16.6196C39.786 16.6196 35.4273 18.8315 35.4273 24.1981C35.4273 30.252 40.8573 32.3383 40.8573 32.3383C40.8573 32.3383 37.0614 42.9415 31.9347 42.9415C29.5796 42.9415 27.7495 41.3664 25.2679 41.3664C22.7393 41.3664 20.2305 42.9999 18.5964 42.9999C13.9147 43.0006 8 32.9429 8 24.8578C8 16.9035 13.0062 12.7308 17.7019 12.7308C20.7549 12.7302 23.124 14.4774 24.7104 14.4774Z" fill="#AAAAAA"/>
</svg>
